<?xml version="1.0" encoding="UTF-8"?>
<svg version="1.1" xmlns="http://www.w3.org/2000/svg" width="512" height="512">
<path d="M0 0 C0.97066406 -0.03738281 1.94132812 -0.07476563 2.94140625 -0.11328125 C12.7715716 1.08391207 21.9477528 6.8762951 30.75 11.1875 C32.18133853 11.88529564 33.61282099 12.58279613 35.04443359 13.2800293 C38.99359346 15.2046982 42.94041806 17.13411021 46.88665771 19.0647583 C49.50562503 20.34582328 52.12505789 21.62593171 54.74462891 22.90576172 C62.28312105 26.58883275 69.82116714 30.2728126 77.35766602 33.95996094 C89.62890847 39.96352949 101.90511093 45.95676944 114.1875 51.9375 C117.38281668 53.493481 120.57813168 55.04946545 123.7734375 56.60546875 C124.56395508 56.99041504 125.35447266 57.37536133 126.16894531 57.77197266 C135.38550621 62.26046028 144.59908881 66.75505149 153.8125 71.25 C154.66203247 71.66445374 155.51156494 72.07890747 156.38684082 72.50592041 C160.68468049 74.60268348 164.98248624 76.69951608 169.28027344 78.79638672 C176.97898459 82.55250846 184.67801133 86.30798324 192.37701416 90.06350708 C196.64718902 92.14647824 200.91734348 94.22949124 205.1875 96.3125 C206.89583324 97.14583353 208.60416657 97.97916687 210.3125 98.8125 C343.56249999 163.8125 343.56249999 163.8125 346.12454224 165.06228638 C347.83439128 165.89635263 349.54425051 166.73039801 351.25411987 167.56442261 C355.50184615 169.63637207 359.74939995 171.70867351 363.99658203 173.78173828 C371.95919269 177.66785443 379.92349446 181.55038738 387.89361572 185.42108154 C391.63406806 187.237891 395.37358636 189.05661838 399.11303711 190.87548828 C400.88584731 191.73712182 402.65910831 192.59782856 404.43286133 193.45751953 C437.40931246 209.44131008 437.40931246 209.44131008 443.4375 224.3125 C446.13806017 232.63779379 445.29037203 242.79771865 441.8359375 250.73828125 C434.89757502 263.51029486 423.14772323 268.18798051 410.55297852 274.28460693 C407.36091313 275.83560443 404.17802667 277.40513647 400.99414062 278.97283936 C389.42966217 284.66636664 377.8410313 290.30979712 366.24829102 295.94549561 C361.92989133 298.0457127 357.61331132 300.14965766 353.296875 302.25390625 C346.89911869 305.37249414 340.50066574 308.48964562 334.1015625 311.60546875 C324.08630327 316.48239133 314.07412685 321.36562588 304.0625 326.25 C303.21296753 326.66445374 302.36343506 327.07890747 301.48815918 327.50592041 C297.19031951 329.60268348 292.89251376 331.69951608 288.59472656 333.79638672 C280.89601541 337.55250846 273.19698867 341.30798324 265.49798584 345.06350708 C261.22781098 347.14647824 256.95765652 349.22949124 252.6875 351.3125 C250.97916676 352.14583353 249.27083343 352.97916687 247.5625 353.8125 C246.716875 354.225 245.87125 354.6375 245 355.0625 C114.31249992 418.81250004 114.31249992 418.81250004 111.75021362 420.06239319 C110.04116548 420.89607695 108.33212007 421.72976632 106.62307739 422.5634613 C102.36320311 424.64147906 98.10328192 426.71940053 93.84326172 428.79711914 C85.12621778 433.04877443 76.41005182 437.30221644 67.6953125 441.55859375 C58.37251052 446.11166157 49.04713373 450.65941893 39.71893311 455.20141602 C37.50913384 456.2776135 35.29971207 457.35458282 33.09033203 458.43164062 C29.27100043 460.29282792 25.44835299 462.14708781 21.625 464 C20.52816895 464.53488037 19.43133789 465.06976074 18.30126953 465.62084961 C17.30853027 466.10046143 16.31579102 466.58007324 15.29296875 467.07421875 C14.01909302 467.6923645 14.01909302 467.6923645 12.71948242 468.32299805 C6.15636052 471.16886657 -1.59628178 471.63092564 -8.39453125 469.37109375 C-15.96264269 465.75156219 -21.01964835 461.085681 -24.53393841 453.40436459 C-28.22820347 442.29937351 -24.75875657 429.9491789 -21.93823242 419.01733398 C-21.54752402 417.44889292 -21.15835347 415.8800681 -20.77058411 414.31089783 C-19.72442818 410.09663655 -18.65662292 405.88815036 -17.584131 401.68052554 C-16.46051523 397.25811356 -15.35606365 392.83091542 -14.24909973 388.40431213 C-12.3904506 380.98354568 -10.51847904 373.56624678 -8.63745117 366.15112305 C-6.46529793 357.58803789 -4.31037056 349.02076904 -2.16541404 340.45083374 C0.12517662 331.29927667 2.42652972 322.15045404 4.73197722 313.00262952 C5.39346394 310.37533289 6.05313349 307.74758531 6.71247292 305.11974907 C7.74890494 300.99175446 8.79267985 296.86568265 9.84211922 292.74097633 C10.22545345 291.22990397 10.60643804 289.71823325 10.9848671 288.20592499 C11.50279538 286.13800321 12.02937269 284.07247087 12.55818176 282.00730896 C12.85039014 280.85242698 13.14259851 279.69754499 13.44366169 278.50766659 C14.70504842 274.45233817 16.18082504 270.72164522 19.0291748 267.52770996 C22.84327726 265.60316285 26.7575548 265.33671184 30.97070312 264.86914062 C31.97200508 264.74850502 32.97330704 264.62786942 34.00495148 264.50357819 C37.48084105 264.09093447 40.95873118 263.70009813 44.4375 263.3125 C45.71644135 263.16787323 46.99538269 263.02324646 48.31307983 262.87423706 C57.20271298 261.86994736 66.09598378 260.90037772 74.99031067 259.93867493 C80.01006921 259.39568332 85.02919897 258.84702332 90.04821777 258.29724121 C91.78018936 258.10758069 93.5121611 257.91792158 95.244133 257.72826385 C96.10972304 257.63347213 96.97531309 257.5386804 97.86713314 257.4410162 C109.51207276 256.16613471 121.15746532 254.89559801 132.80419922 253.63720703 C140.72112543 252.78176451 148.63715725 251.918508 156.55225611 251.04631472 C160.72269682 250.58708578 164.89348672 250.13186033 169.06541443 249.68632507 C172.97371054 249.26890847 176.88074949 248.84124493 180.78707314 248.40576744 C182.21568216 248.24835001 183.64471011 248.09468025 185.07416344 247.94512367 C196.5283854 247.01067938 196.5283854 247.01067938 206.375 241.625 C207.95280025 238.19096416 208.08575234 234.9762183 207.4375 231.3125 C204.849797 226.73425623 202.36896293 225.69721582 197.4375 224.3125 C195.05763733 223.93526764 192.6666808 223.6248811 190.27125549 223.36413574 C189.57278045 223.28625053 188.87430541 223.20836532 188.15466446 223.12811995 C185.82713958 222.87016888 183.49870847 222.62163083 181.17016602 222.37304688 C179.49586674 222.18939199 177.82163321 222.00513685 176.14746094 221.82032776 C172.54823399 221.42424607 168.94859216 221.03226895 165.34857368 220.64344788 C159.6535427 220.02819071 153.95963353 219.40296216 148.26585388 218.77624512 C137.20572496 217.56017179 126.1445869 216.35344658 115.08325195 215.14839935 C101.00712346 213.61490078 86.93120116 212.07963481 72.85673279 210.53096247 C67.19925983 209.90881637 61.54117804 209.29264289 55.88255131 208.68108368 C52.35932755 208.29910101 48.83666826 207.9120979 45.31414032 207.52375603 C43.68378881 207.3450665 42.05320718 207.16846204 40.42238426 206.99412727 C38.19117508 206.75532376 35.96091679 206.50899286 33.73072815 206.26086426 C31.86057714 206.05735729 31.86057714 206.05735729 29.9526453 205.84973907 C20.56708658 204.41529229 20.56708658 204.41529229 17.10884094 201.03907776 C15.37733553 198.21434941 14.49263367 195.89558378 13.69604492 192.68725586 C13.26603935 190.9958976 13.26603935 190.9958976 12.8273468 189.27037048 C12.52725204 188.03517166 12.22715729 186.79997284 11.91796875 185.52734375 C11.58395118 184.19389431 11.2487671 182.86073662 10.91252136 181.52784729 C9.99417981 177.87353283 9.09194153 174.2154148 8.1929245 170.55630493 C7.23553525 166.66840865 6.2659426 162.78355826 5.29736328 158.8984375 C4.04550859 153.87427294 2.79524203 148.84973192 1.55090332 143.82369995 C-1.59307867 131.13518185 -4.81283046 118.46710259 -8.05854607 105.80426216 C-9.6579212 99.5554925 -11.24657294 93.30398873 -12.83471394 87.05235577 C-14.13439192 81.93886223 -15.43989127 76.82700895 -16.75894165 71.71847534 C-18.01208909 66.86339417 -19.24770787 62.00415998 -20.47107506 57.14149284 C-20.92472752 55.35091257 -21.38447916 53.56186384 -21.85102272 51.77459908 C-28.54838419 26.07979684 -28.54838419 26.07979684 -23.375 14.6875 C-18.15365207 5.85362282 -10.4256775 0.2582632 0 0 Z " fill="#000000" transform="translate(46.5625,20.6875)"/>
</svg>
